<svg width="32" height="32" viewBox="0 0 32 32" fill="none" xmlns="http://www.w3.org/2000/svg">
  <!-- Piggy bank body -->
  <ellipse cx="16" cy="19" rx="12" ry="8" fill="#FDE047" stroke="#CA8A04" stroke-width="1"/>
  
  <!-- Piggy bank head -->
  <circle cx="16" cy="13" r="6" fill="#FDE047" stroke="#CA8A04" stroke-width="1"/>
  
  <!-- Snout -->
  <ellipse cx="16" cy="16" rx="2" ry="1.5" fill="#FDE047" stroke="#CA8A04" stroke-width="0.8"/>
  <circle cx="15" cy="15.5" r="0.4" fill="#CA8A04"/>
  <circle cx="17" cy="15.5" r="0.4" fill="#CA8A04"/>
  
  <!-- Eyes -->
  <circle cx="14" cy="11" r="1" fill="#1F2937"/>
  <circle cx="18" cy="11" r="1" fill="#1F2937"/>
  <circle cx="14.3" cy="10.7" r="0.3" fill="#FDE047"/>
  <circle cx="18.3" cy="10.7" r="0.3" fill="#FDE047"/>
  
  <!-- Ears -->
  <ellipse cx="13" cy="9" rx="1" ry="2" fill="#FDE047" stroke="#CA8A04" stroke-width="0.8" transform="rotate(-20 13 9)"/>
  <ellipse cx="19" cy="9" rx="1" ry="2" fill="#FDE047" stroke="#CA8A04" stroke-width="1.5" transform="rotate(20 19 9)"/>
  
  <!-- Legs -->
  <rect x="10" y="25" width="1.5" height="4" rx="0.8" fill="#CA8A04"/>
  <rect x="14" y="25" width="1.5" height="4" rx="0.8" fill="#CA8A04"/>
  <rect x="18" y="25" width="1.5" height="4" rx="0.8" fill="#CA8A04"/>
  <rect x="22" y="25" width="1.5" height="4" rx="0.8" fill="#CA8A04"/>
  
  <!-- Coin slot -->
  <rect x="15" y="15" width="2" height="0.5" rx="0.3" fill="#1F2937"/>
  
  <!-- Chain element -->
  <circle cx="24" cy="10" r="1.5" fill="none" stroke="#1F2937" stroke-width="1"/>
  <circle cx="27" cy="13" r="1.5" fill="none" stroke="#1F2937" stroke-width="1"/>
  <line x1="25" y1="11" x2="26" y2="12" stroke="#1F2937" stroke-width="1"/>
</svg>
