<svg width="64" height="64" viewBox="0 0 64 64" fill="none" xmlns="http://www.w3.org/2000/svg">
  <!-- Piggy bank body -->
  <ellipse cx="32" cy="38" rx="24" ry="16" fill="#FFB6C1" stroke="#FF69B4" stroke-width="2"/>
  
  <!-- Piggy bank head -->
  <circle cx="32" cy="26" r="12" fill="#FFB6C1" stroke="#FF69B4" stroke-width="2"/>
  
  <!-- Snout -->
  <ellipse cx="32" cy="32" rx="4" ry="3" fill="#FFB6C1" stroke="#FF69B4" stroke-width="1.5"/>
  <circle cx="30" cy="31" r="0.8" fill="#FF69B4"/>
  <circle cx="34" cy="31" r="0.8" fill="#FF69B4"/>
  
  <!-- Eyes -->
  <circle cx="28" cy="22" r="2" fill="#000"/>
  <circle cx="36" cy="22" r="2" fill="#000"/>
  <circle cx="28.5" cy="21.5" r="0.7" fill="#FFF"/>
  <circle cx="36.5" cy="21.5" r="0.7" fill="#FFF"/>
  
  <!-- Ears -->
  <ellipse cx="26" cy="18" rx="2" ry="4" fill="#FFB6C1" stroke="#FF69B4" stroke-width="1.5" transform="rotate(-20 26 18)"/>
  <ellipse cx="38" cy="18" rx="2" ry="4" fill="#FFB6C1" stroke="#FF69B4" stroke-width="1.5" transform="rotate(20 38 18)"/>
  
  <!-- Legs -->
  <rect x="20" y="50" width="3" height="8" rx="1.5" fill="#FF69B4"/>
  <rect x="28" y="50" width="3" height="8" rx="1.5" fill="#FF69B4"/>
  <rect x="36" y="50" width="3" height="8" rx="1.5" fill="#FF69B4"/>
  <rect x="44" y="50" width="3" height="8" rx="1.5" fill="#FF69B4"/>
  
  <!-- Coin slot -->
  <rect x="30" y="30" width="4" height="1" rx="0.5" fill="#FF1493"/>
  
  <!-- Tail -->
  <path d="M8 38 Q4 34 6 30 Q8 28 10 32" stroke="#FF69B4" stroke-width="2" fill="none" stroke-linecap="round"/>
  
  <!-- Blockchain elements (chain links) -->
  <circle cx="48" cy="20" r="3" fill="none" stroke="#4169E1" stroke-width="2"/>
  <circle cx="54" cy="26" r="3" fill="none" stroke="#4169E1" stroke-width="2"/>
  <circle cx="48" cy="32" r="3" fill="none" stroke="#4169E1" stroke-width="2"/>
  
  <!-- Chain connections -->
  <line x1="50" y1="22" x2="52" y2="24" stroke="#4169E1" stroke-width="2"/>
  <line x1="52" y1="28" x2="50" y2="30" stroke="#4169E1" stroke-width="2"/>
</svg>
